<?xml version="1.0" encoding="UTF-8"?>
<svg id="Layer_1" data-name="Layer 1" xmlns="http://www.w3.org/2000/svg" viewBox="0 0 1962 551.25">
  <defs>
    <style>
      .cls-1 {
        fill: #7a6f72;
      }

      .cls-2 {
        fill: #f59399;
      }
    </style>
  </defs>
  <g>
    <g>
      <path class="cls-2" d="M791.1,249.1v158.1h-31.42v-69.73h-41.89v69.73h-31.42v-158.1h31.42v62.32h41.89v-62.32h31.42Z"/>
      <path class="cls-2" d="M809.49,328.03c0-27.24,5.02-47.8,15.07-61.68,10.04-13.88,24.01-20.82,41.89-20.82s32.69,6.94,42.4,20.82c9.71,13.88,14.56,34.44,14.56,61.68s-4.94,47.81-14.81,61.68c-9.88,13.88-23.84,20.82-41.89,20.82s-32.74-6.94-42.53-20.82c-9.79-13.88-14.69-34.44-14.69-61.68ZM841.41,328.03c0,7.66.29,14.86.89,21.58.59,6.73,1.79,12.56,3.58,17.5,1.79,4.94,4.3,8.86,7.53,11.75,3.23,2.9,7.58,4.34,13.03,4.34s9.58-1.45,12.9-4.34c3.32-2.89,5.88-6.85,7.66-11.88,1.79-5.02,2.98-10.86,3.58-17.5.59-6.64.89-13.79.89-21.46s-.3-14.85-.89-21.58c-.6-6.72-1.79-12.56-3.58-17.5-1.79-4.94-4.3-8.85-7.54-11.75-3.24-2.89-7.58-4.34-13.03-4.34s-9.79,1.45-13.03,4.34c-3.24,2.9-5.75,6.86-7.53,11.88-1.79,5.03-2.98,10.86-3.58,17.5-.6,6.64-.89,13.79-.89,21.46Z"/>
      <path class="cls-2" d="M989.55,384.22c5.28,0,9.66-.55,13.15-1.66,3.49-1.11,6.26-2.64,8.3-4.6,2.04-1.96,3.45-4.17,4.21-6.64.77-2.47,1.15-4.98,1.15-7.54,0-3.23-.94-6.13-2.81-8.68-1.88-2.55-4.26-4.81-7.15-6.77-2.9-1.96-6.13-3.74-9.71-5.36-3.58-1.62-7.15-3.1-10.73-4.47-4.77-1.7-9.71-3.66-14.81-5.87-5.11-2.21-9.75-5.02-13.92-8.43-4.17-3.4-7.62-7.62-10.34-12.64-2.73-5.02-4.09-11.28-4.09-18.77,0-14.81,4.81-26.39,14.43-34.74,9.62-8.34,22.86-12.52,39.72-12.52,9.71,0,18.17,1.11,25.41,3.32,7.24,2.21,13.32,4.69,18.26,7.41l-9.19,24.26c-4.26-2.38-8.98-4.43-14.18-6.13-5.2-1.7-11.2-2.55-18.01-2.55-16.69,0-25.03,6.05-25.03,18.13,0,3.06.85,5.75,2.55,8.05,1.7,2.3,3.87,4.34,6.51,6.13,2.64,1.79,5.62,3.36,8.94,4.72,3.32,1.37,6.6,2.64,9.83,3.83,4.94,1.88,10.09,3.96,15.45,6.26,5.36,2.3,10.3,5.36,14.81,9.2,4.51,3.83,8.21,8.6,11.11,14.3,2.89,5.71,4.34,12.9,4.34,21.58,0,14.81-4.81,26.27-14.43,34.35-9.62,8.09-24.22,12.13-43.8,12.13-13.11,0-23.59-1.4-31.42-4.21-7.83-2.81-13.71-5.4-17.62-7.79l9.19-25.54c4.6,2.73,10.09,5.28,16.47,7.66,6.39,2.39,14.18,3.58,23.37,3.58Z"/>
      <path class="cls-2" d="M1117.26,384.22c5.28,0,9.66-.55,13.15-1.66,3.49-1.11,6.26-2.64,8.3-4.6,2.04-1.96,3.45-4.17,4.21-6.64.77-2.47,1.15-4.98,1.15-7.54,0-3.23-.94-6.13-2.81-8.68-1.88-2.55-4.26-4.81-7.15-6.77-2.9-1.96-6.13-3.74-9.71-5.36-3.58-1.62-7.15-3.1-10.73-4.47-4.77-1.7-9.71-3.66-14.81-5.87-5.11-2.21-9.75-5.02-13.92-8.43-4.17-3.4-7.62-7.62-10.34-12.64-2.73-5.02-4.09-11.28-4.09-18.77,0-14.81,4.81-26.39,14.43-34.74,9.62-8.34,22.86-12.52,39.72-12.52,9.71,0,18.17,1.11,25.41,3.32,7.24,2.21,13.32,4.69,18.26,7.41l-9.19,24.26c-4.26-2.38-8.98-4.43-14.18-6.13-5.2-1.7-11.2-2.55-18.01-2.55-16.69,0-25.03,6.05-25.03,18.13,0,3.06.85,5.75,2.55,8.05,1.7,2.3,3.87,4.34,6.51,6.13,2.64,1.79,5.62,3.36,8.94,4.72,3.32,1.37,6.6,2.64,9.83,3.83,4.94,1.88,10.09,3.96,15.45,6.26,5.36,2.3,10.3,5.36,14.81,9.2,4.51,3.83,8.21,8.6,11.11,14.3,2.89,5.71,4.34,12.9,4.34,21.58,0,14.81-4.81,26.27-14.43,34.35-9.62,8.09-24.22,12.13-43.8,12.13-13.11,0-23.59-1.4-31.42-4.21-7.83-2.81-13.71-5.4-17.62-7.79l9.19-25.54c4.6,2.73,10.09,5.28,16.47,7.66,6.39,2.39,14.18,3.58,23.37,3.58Z"/>
      <path class="cls-2" d="M1277.41,407.21l-7.41-36.52h-42.14l-7.15,36.52h-32.69c7.49-31.16,15.07-59.55,22.73-85.18,7.66-25.63,15.07-49.93,22.22-72.92h34.23c7.49,23.16,14.94,47.72,22.35,73.69,7.41,25.97,14.6,54.11,21.58,84.42h-33.71ZM1249.31,279.75c-1.7,5.96-3.28,11.62-4.73,16.99-1.45,5.36-2.81,10.64-4.09,15.84-1.28,5.2-2.47,10.43-3.58,15.71-1.11,5.28-2.17,10.73-3.19,16.35h30.91c-1.02-5.62-2.04-11.07-3.06-16.35-1.02-5.28-2.17-10.51-3.45-15.71-1.28-5.19-2.64-10.47-4.09-15.84-1.45-5.36-3.02-11.02-4.72-16.99Z"/>
      <path class="cls-2" d="M1434.23,328.03c0,14.65-1.83,27.12-5.49,37.42-3.66,10.3-8.73,18.69-15.2,25.16-6.47,6.47-14.18,11.2-23.12,14.17-8.94,2.98-18.77,4.47-29.5,4.47-5.62,0-11.11-.3-16.47-.89-5.36-.6-11.11-1.57-17.24-2.94v-154.27c7.15-1.53,13.88-2.55,20.18-3.06,6.3-.51,12.17-.77,17.62-.77,10.38,0,19.88,1.53,28.48,4.6,8.6,3.06,15.88,7.88,21.84,14.43,5.96,6.56,10.6,14.9,13.92,25.03,3.32,10.13,4.98,22.35,4.98,36.65ZM1358.63,381.66c.85.17,1.79.25,2.81.25h2.81c7.15,0,13.15-1.36,18.01-4.09,4.85-2.72,8.77-6.47,11.75-11.24,2.98-4.76,5.11-10.43,6.39-16.98,1.28-6.55,1.92-13.75,1.92-21.58,0-6.81-.51-13.45-1.53-19.92-1.02-6.47-2.81-12.17-5.36-17.11-2.55-4.94-6.05-8.9-10.47-11.88-4.43-2.98-10.13-4.47-17.11-4.47-1.37,0-2.9.04-4.6.13-1.7.09-3.24.3-4.6.64v106.25Z"/>
      <path class="cls-2" d="M1506,321.39c1.87-3.92,4.04-8.85,6.51-14.81,2.47-5.96,4.94-12.26,7.41-18.9,2.47-6.64,4.85-13.37,7.15-20.18,2.3-6.81,4.38-12.94,6.26-18.39h32.44c-3.24,8.68-6.47,17.11-9.71,25.29-3.24,8.17-6.64,16.26-10.22,24.26-3.58,8.01-7.41,15.96-11.49,23.88s-8.52,16.05-13.28,24.39v60.28h-31.67v-60.02c-9.37-16.51-17.58-32.65-24.65-48.4-7.07-15.75-13.84-32.31-20.31-49.68h33.71c3.92,12.26,8.26,24.74,13.03,37.42,4.76,12.69,9.71,24.31,14.81,34.86Z"/>
      <path class="cls-2" d="M1659.51,407.21c-7.15-17.54-14.94-35.03-23.37-52.49-8.43-17.45-17.5-34.95-27.2-52.49v104.98h-28.35v-158.1h25.29c4.76,7.49,9.53,15.62,14.3,24.39,4.76,8.77,9.41,17.5,13.92,26.18,4.51,8.68,8.68,17.11,12.51,25.29,3.83,8.17,7.11,15.32,9.83,21.45v-97.31h28.35v158.1h-25.29Z"/>
      <path class="cls-2" d="M1788.24,407.21l-7.41-36.52h-42.14l-7.15,36.52h-32.69c7.49-31.16,15.07-59.55,22.73-85.18,7.66-25.63,15.07-49.93,22.22-72.92h34.23c7.49,23.16,14.94,47.72,22.35,73.69,7.41,25.97,14.6,54.11,21.58,84.42h-33.71ZM1760.14,279.75c-1.7,5.96-3.28,11.62-4.73,16.99-1.45,5.36-2.81,10.64-4.09,15.84-1.28,5.2-2.47,10.43-3.58,15.71-1.11,5.28-2.17,10.73-3.19,16.35h30.91c-1.02-5.62-2.04-11.07-3.06-16.35-1.02-5.28-2.17-10.51-3.45-15.71-1.28-5.19-2.64-10.47-4.09-15.84-1.45-5.36-3.02-11.02-4.72-16.99Z"/>
    </g>
    <g>
      <path class="cls-1" d="M702.92,125.8c.52,1.55,1.16,3.54,1.94,5.98.78,2.44,1.61,5.06,2.49,7.86.88,2.81,1.77,5.64,2.66,8.52.88,2.88,1.73,5.53,2.54,7.97.89-2.73,1.81-5.55,2.77-8.47.96-2.91,1.88-5.72,2.77-8.41.89-2.69,1.7-5.22,2.44-7.58.74-2.36,1.4-4.32,1.99-5.87h11.29c.52,5.98,1.01,11.81,1.49,17.49.48,5.68.89,11.31,1.22,16.88.33,5.57.61,11.18.83,16.82.22,5.64.4,11.42.55,17.32h-12.51l.66-53.24-8.41,29h-9.96l-8.08-29,.55,53.24h-12.51c.22-5.61.46-11.44.72-17.49.26-6.05.53-12.06.83-18.04.29-5.98.65-11.77,1.05-17.38.4-5.61.87-10.81,1.38-15.61h11.29Z"/>
      <path class="cls-1" d="M857.65,194.31l-3.21-15.83h-18.26l-3.1,15.83h-14.17c3.25-13.5,6.53-25.81,9.85-36.91,3.32-11.1,6.53-21.64,9.63-31.6h14.83c3.25,10.04,6.47,20.68,9.68,31.93,3.21,11.25,6.33,23.45,9.35,36.58h-14.61ZM845.47,139.09c-.74,2.58-1.42,5.04-2.05,7.36-.63,2.32-1.22,4.61-1.77,6.86-.55,2.25-1.07,4.52-1.55,6.81-.48,2.29-.94,4.65-1.38,7.08h13.39c-.44-2.43-.89-4.8-1.33-7.08-.44-2.29-.94-4.56-1.49-6.81-.55-2.25-1.15-4.54-1.77-6.86-.63-2.32-1.31-4.78-2.05-7.36Z"/>
      <path class="cls-1" d="M985.26,136.1c-3.25,0-5.98.59-8.19,1.77-2.21,1.18-4.04,2.82-5.48,4.93-1.44,2.1-2.47,4.61-3.1,7.53-.63,2.92-.94,6.14-.94,9.68,0,8.19,1.29,14.22,3.87,18.1,2.58,3.87,6.38,5.81,11.4,5.81.81,0,1.7-.04,2.66-.11.96-.07,1.84-.18,2.66-.33v-25.01h13.61v34.2c-1.62.59-4.15,1.26-7.58,1.99-3.43.74-7.58,1.11-12.45,1.11-4.28,0-8.13-.76-11.57-2.27-3.43-1.51-6.36-3.76-8.8-6.75-2.43-2.99-4.32-6.71-5.64-11.18-1.33-4.46-1.99-9.65-1.99-15.55s.77-10.97,2.32-15.44c1.55-4.46,3.65-8.21,6.31-11.23,2.66-3.02,5.79-5.29,9.41-6.81,3.61-1.51,7.49-2.27,11.62-2.27,2.66,0,5.04.2,7.14.61,2.1.41,3.93.87,5.48,1.38,1.55.52,2.82,1.07,3.82,1.66,1,.59,1.75,1.03,2.27,1.33l-3.54,10.85c-1.62-1.03-3.62-1.95-5.98-2.77-2.36-.81-4.8-1.22-7.3-1.22Z"/>
      <path class="cls-1" d="M1135.9,160c0,6.35-.79,11.75-2.38,16.21-1.59,4.47-3.78,8.1-6.58,10.9-2.81,2.81-6.14,4.85-10.02,6.14-3.87,1.29-8.13,1.94-12.78,1.94-2.44,0-4.82-.13-7.14-.39-2.32-.26-4.81-.68-7.47-1.27v-66.85c3.1-.66,6.01-1.11,8.74-1.33,2.73-.22,5.27-.33,7.64-.33,4.5,0,8.61.66,12.34,1.99,3.72,1.33,6.88,3.41,9.46,6.25,2.58,2.84,4.59,6.46,6.03,10.85,1.44,4.39,2.16,9.68,2.16,15.88ZM1103.14,183.25c.37.07.78.11,1.22.11h1.22c3.1,0,5.7-.59,7.8-1.77,2.1-1.18,3.8-2.8,5.09-4.87,1.29-2.06,2.21-4.52,2.77-7.36.55-2.84.83-5.96.83-9.35,0-2.95-.22-5.83-.66-8.63-.44-2.8-1.22-5.27-2.32-7.42-1.11-2.14-2.62-3.85-4.54-5.15-1.92-1.29-4.39-1.94-7.42-1.94-.59,0-1.26.02-1.99.06-.74.04-1.4.13-1.99.28v46.04Z"/>
      <path class="cls-1" d="M1256.1,194.31l-3.21-15.83h-18.26l-3.1,15.83h-14.17c3.25-13.5,6.53-25.81,9.85-36.91,3.32-11.1,6.53-21.64,9.63-31.6h14.83c3.25,10.04,6.47,20.68,9.68,31.93,3.21,11.25,6.33,23.45,9.35,36.58h-14.61ZM1243.92,139.09c-.74,2.58-1.42,5.04-2.05,7.36-.63,2.32-1.22,4.61-1.77,6.86-.55,2.25-1.07,4.52-1.55,6.81-.48,2.29-.94,4.65-1.38,7.08h13.39c-.44-2.43-.89-4.8-1.33-7.08-.44-2.29-.94-4.56-1.49-6.81-.55-2.25-1.15-4.54-1.77-6.86-.63-2.32-1.31-4.78-2.05-7.36Z"/>
      <path class="cls-1" d="M1400.09,194.31h-43.05v-68.51h13.72v57.22h29.33v11.29Z"/>
      <path class="cls-1" d="M1488.97,194.31v-68.51h41.5v11.29h-27.89v15.38h24.24v11.29h-24.24v19.26h30.33v11.29h-43.94Z"/>
      <path class="cls-1" d="M1654.1,194.31c-3.1-7.6-6.47-15.18-10.13-22.74-3.65-7.56-7.58-15.14-11.79-22.74v45.49h-12.29v-68.51h10.96c2.06,3.25,4.13,6.77,6.2,10.57,2.06,3.8,4.08,7.58,6.03,11.34,1.95,3.76,3.76,7.42,5.42,10.96,1.66,3.54,3.08,6.64,4.26,9.3v-42.17h12.29v68.51h-10.96Z"/>
      <path class="cls-1" d="M1787.36,194.31l-3.21-15.83h-18.26l-3.1,15.83h-14.17c3.25-13.5,6.53-25.81,9.85-36.91,3.32-11.1,6.53-21.64,9.63-31.6h14.83c3.25,10.04,6.47,20.68,9.68,31.93,3.21,11.25,6.33,23.45,9.35,36.58h-14.61ZM1775.18,139.09c-.74,2.58-1.42,5.04-2.05,7.36-.63,2.32-1.22,4.61-1.77,6.86-.55,2.25-1.07,4.52-1.55,6.81-.48,2.29-.94,4.65-1.38,7.08h13.39c-.44-2.43-.89-4.8-1.33-7.08-.44-2.29-.94-4.56-1.49-6.81-.55-2.25-1.15-4.54-1.77-6.86-.63-2.32-1.31-4.78-2.05-7.36Z"/>
    </g>
  </g>
  <g>
    <path class="cls-1" d="M351.3,279.27c3.51-4.32,15.17-19.71,15.32-42.64.15-22.97-11.35-38.54-14.81-42.89-3.39,3.91-15.84,19.19-16.09,42.38-.24,23.55,12.27,39.25,15.57,43.15Z"/>
    <path class="cls-1" d="M518.33,161c-30.74-34.69-86.16-76.05-175.64-76.05-69.46,0-116.56,25.42-143.84,46.75-34.02,26.6-56.64,62.78-60.5,96.79-4.62,40.69,17.78,72.26,58.66,83.19,8.18,10.25,21.23,23.92,40.43,35.27,36.86,21.79,73.27,21.39,88.68,20.29-.29-2.89-.51-6-.59-9.3-.1-3.69-.02-7.15.17-10.34-13.9.6-46.41.04-78.81-20.28-16.71-10.48-28-22.83-35.09-32.13l-2.38-3-3.73-.86c-32.5-7.48-49.13-29.49-45.62-60.37,3.22-28.31,22.75-58.98,52.25-82.04,24.57-19.21,67.14-42.11,130.38-42.11,81.35,0,131.52,37.35,159.28,68.69,34.22,38.63,45.81,79.51,46.06,93.26.31,16.98-7.09,28.14-13.34,34.52-8.04,8.19-17.63,11.92-23.13,11.92h-10.93v10.93c0,10.61-4.56,21.39-12.2,28.84-4.68,4.56-12.64,9.95-24.01,9.67-16.32-.4-25.51,6.94-30.36,13.16-10.44,13.4-9.21,31.42-6.84,39.96,4.83,17.4.33,22.73-2.47,24.48,0,0,0,0,0,0,0,0-.83.47-1.73.82-.83.32-35.19-16.24-52.61-59.01-5.08-12.46-11.74-34.58-8.75-64.96,5.57-.99,24.62-5.06,39.68-22.44,16.49-19.02,16.69-40.72,16.6-45.96-7.57,1.33-25.47,5.54-42.13,20.43-15.8,14.12-22.09,30.34-24.44,37.68-2-6.84-9.16-28.17-30.71-43.55-16.93-12.09-34.04-14.29-41.62-14.81.91,7.01,4.61,28.64,22.98,46.98,15.17,15.15,32.27,19.99,39.56,21.61-.5,21.35-2.68,55.41,16.85,89.3,27.5,47.73,58.95,57.74,60.84,57.9,3.61.3,6.37-1.07,6.37-1.07,0,0,0,0,0,0,21.13-7.05,29.81-27.45,22.65-53.24-1.39-5-1.39-15.02,3.02-20.68.96-1.23,3.87-4.95,12.59-4.75,14.8.32,28.94-5.28,39.8-15.87,9.63-9.4,15.95-21.77,18.04-34.92,9.95-2.57,20.26-8.65,28.55-17.09,12.99-13.23,19.95-31.06,19.6-50.23-.35-19.41-14.66-65.71-51.56-107.35Z"/>
    <path class="cls-2" d="M485.67,190.08c-2.41-2.72-5.26-5.78-8.62-9.08-3.37-3.31-15.25-14.72-33.27-25.79-6.7-4.12-28.34-16.81-56.22-23.62-50.25-12.26-94.76.97-112.87,7.41-22.79,8.09-38.87,19.11-48.87,27.22-7.97,6.46-40.05,32.55-43.99,67.29-1.27,11.16,1.34,17.09,3.09,20.3,9.17,16.82,32.86,18.13,36.11,18.27,6.19,9.6,16.15,22.42,31.42,33.92,29.32,22.1,60.21,25.8,73.94,26.57.1-1.29.36-3,1.03-4.92.65-1.85,1.47-3.31,2.17-4.37-7.63-2.18-24.85-8.23-39.28-24.61-20.66-23.45-20.62-51.04-20.43-57.7,7.44-.33,20.11.06,34.55,5.45,13.9,5.18,23.48,12.76,28.88,17.74-2.59-6.12-7.87-20.89-4.75-39.53,3.95-23.57,18.71-37.63,23.32-41.7,4.46,4.22,22.15,21.91,23.38,49.58.66,14.95-3.75,26.71-6.78,33.15,5.59-5.15,14.43-12.12,26.72-17.67,12.1-5.46,23.01-7.49,30.51-8.3.98,5.05,5.35,30.26-10.72,54.64-14.9,22.59-37.26,29.15-42.73,30.59,1.75,20.54,7.47,36.25,12.98,47.35,1.33,2.69,12.34,24.59,18.85,22.85,5.1-1.37,1.63-15.7,12.78-30.69,3.78-5.08,7.65-8.1,9.72-9.7,10.01-7.74,22.61-11.89,36.61-11.89.59,0,2.12.03,2.12.03,1.87,0,4.72-.36,7.9-3.46,3.41-3.33,5.61-8.51,5.61-13.2v-32.78h32.06c1.19-.33,4.74-1.79,8.26-5.38,4.84-4.93,7.22-11.26,7.09-18.81-.16-9.1-10.09-44.76-40.57-79.16Z"/>
  </g>
</svg>