<?xml version="1.0" encoding="UTF-8"?>
<svg id="Warstwa_2" data-name="Warstwa 2" xmlns="http://www.w3.org/2000/svg" viewBox="0 0 432.15 381.31">
  <defs>
    <style>
      .cls-1 {
        fill: #7a6f72;
      }

      .cls-2 {
        fill: #f59399;
      }
    </style>
  </defs>
  <g id="Layer_1" data-name="Layer 1">
    <g>
      <path class="cls-1" d="M213.55,194.32c3.51-4.32,15.17-19.71,15.32-42.64.15-22.97-11.35-38.54-14.81-42.89-3.39,3.91-15.84,19.19-16.09,42.38-.24,23.55,12.27,39.25,15.57,43.15Z"/>
      <path class="cls-1" d="M380.58,76.05C349.84,41.36,294.42,0,204.94,0,135.48,0,88.38,25.42,61.1,46.75,27.08,73.34,4.46,109.53.6,143.54c-4.62,40.69,17.78,72.26,58.66,83.19,8.18,10.25,21.23,23.92,40.43,35.27,36.86,21.79,73.27,21.39,88.68,20.29-.29-2.89-.51-6-.59-9.3-.1-3.69-.02-7.15.17-10.34-13.9.6-46.41.04-78.81-20.28-16.71-10.48-28-22.83-35.09-32.13l-2.38-3-3.73-.86c-32.5-7.48-49.13-29.49-45.62-60.37,3.22-28.31,22.75-58.98,52.25-82.04,24.57-19.21,67.14-42.11,130.38-42.11,81.35,0,131.52,37.35,159.28,68.69,34.22,38.63,45.81,79.51,46.06,93.26.31,16.98-7.09,28.14-13.34,34.52-8.04,8.19-17.63,11.92-23.13,11.92h-10.93v10.93c0,10.61-4.56,21.39-12.2,28.84-4.68,4.56-12.64,9.95-24.01,9.67-16.32-.4-25.51,6.94-30.36,13.16-10.44,13.4-9.21,31.42-6.84,39.96,4.83,17.4.33,22.73-2.47,24.48,0,0,0,0,0,0,0,0-.83.47-1.73.82-.83.32-35.19-16.24-52.61-59.01-5.08-12.46-11.74-34.58-8.75-64.96,5.57-.99,24.62-5.06,39.68-22.44,16.49-19.02,16.69-40.72,16.6-45.96-7.57,1.33-25.47,5.54-42.13,20.43-15.8,14.12-22.09,30.34-24.44,37.68-2-6.84-9.16-28.17-30.71-43.55-16.93-12.09-34.04-14.29-41.62-14.81.91,7.01,4.61,28.64,22.98,46.98,15.17,15.15,32.27,19.99,39.56,21.61-.5,21.35-2.68,55.41,16.85,89.3,27.5,47.73,58.95,57.74,60.84,57.9,3.61.3,6.37-1.07,6.37-1.07,0,0,0,0,0,0,21.13-7.05,29.81-27.45,22.65-53.24-1.39-5-1.39-15.02,3.02-20.68.96-1.23,3.87-4.95,12.59-4.75,14.8.32,28.94-5.28,39.8-15.87,9.63-9.4,15.95-21.77,18.04-34.92,9.95-2.57,20.26-8.65,28.55-17.09,12.99-13.23,19.95-31.06,19.6-50.23-.35-19.41-14.66-65.71-51.56-107.35Z"/>
      <path class="cls-2" d="M347.92,105.13c-2.41-2.72-5.26-5.78-8.62-9.08-3.37-3.31-15.25-14.72-33.27-25.79-6.7-4.12-28.34-16.81-56.22-23.62-50.25-12.26-94.76.97-112.87,7.41-22.79,8.09-38.87,19.11-48.87,27.22-7.97,6.46-40.05,32.55-43.99,67.29-1.27,11.16,1.34,17.09,3.09,20.3,9.17,16.82,32.86,18.13,36.11,18.27,6.19,9.6,16.15,22.42,31.42,33.92,29.32,22.1,60.21,25.8,73.94,26.57.1-1.29.36-3,1.03-4.92.65-1.85,1.47-3.31,2.17-4.37-7.63-2.18-24.85-8.23-39.28-24.61-20.66-23.45-20.62-51.04-20.43-57.7,7.44-.33,20.11.06,34.55,5.45,13.9,5.18,23.48,12.76,28.88,17.74-2.59-6.12-7.87-20.89-4.75-39.53,3.95-23.57,18.71-37.63,23.32-41.7,4.46,4.22,22.15,21.91,23.38,49.58.66,14.95-3.75,26.71-6.78,33.15,5.59-5.15,14.43-12.12,26.72-17.67,12.1-5.46,23.01-7.49,30.51-8.3.98,5.05,5.35,30.26-10.72,54.64-14.9,22.59-37.26,29.15-42.73,30.59,1.75,20.54,7.47,36.25,12.98,47.35,1.33,2.69,12.34,24.59,18.85,22.85,5.1-1.37,1.63-15.7,12.78-30.69,3.78-5.08,7.65-8.1,9.72-9.7,10.01-7.74,22.61-11.89,36.61-11.89.59,0,2.12.03,2.12.03,1.87,0,4.72-.36,7.9-3.46,3.41-3.33,5.61-8.51,5.61-13.2v-32.78h32.06c1.19-.33,4.74-1.79,8.26-5.38,4.84-4.93,7.22-11.26,7.09-18.81-.16-9.1-10.09-44.76-40.57-79.16Z"/>
    </g>
  </g>
</svg>